<svg width="20" height="20" viewBox="0 0 20 20" fill="none" xmlns="http://www.w3.org/2000/svg">
<g clip-path="url(#clip0_3_1086)">
<path d="M2.49996 5.00002C2.04163 5.00002 1.66663 5.37502 1.66663 5.83335V16.6667C1.66663 17.5834 2.41663 18.3334 3.33329 18.3334H14.1666C14.625 18.3334 15 17.9584 15 17.5C15 17.0417 14.625 16.6667 14.1666 16.6667H4.16663C3.70829 16.6667 3.33329 16.2917 3.33329 15.8334V5.83335C3.33329 5.37502 2.95829 5.00002 2.49996 5.00002ZM16.6666 1.66669H6.66663C5.74996 1.66669 4.99996 2.41669 4.99996 3.33335V13.3334C4.99996 14.25 5.74996 15 6.66663 15H16.6666C17.5833 15 18.3333 14.25 18.3333 13.3334V3.33335C18.3333 2.41669 17.5833 1.66669 16.6666 1.66669ZM15 9.16669H12.5V11.6667C12.5 12.125 12.125 12.5 11.6666 12.5C11.2083 12.5 10.8333 12.125 10.8333 11.6667V9.16669H8.33329C7.87496 9.16669 7.49996 8.79169 7.49996 8.33335C7.49996 7.87502 7.87496 7.50002 8.33329 7.50002H10.8333V5.00002C10.8333 4.54169 11.2083 4.16669 11.6666 4.16669C12.125 4.16669 12.5 4.54169 12.5 5.00002V7.50002H15C15.4583 7.50002 15.8333 7.87502 15.8333 8.33335C15.8333 8.79169 15.4583 9.16669 15 9.16669Z" fill="white"/>
</g>
<defs>
<clipPath id="clip0_3_1086">
<rect width="20" height="20" fill="white"/>
</clipPath>
</defs>
</svg>
