<svg width="150" height="150" viewBox="0 0 150 150" fill="none" xmlns="http://www.w3.org/2000/svg">
<g clip-path="url(#clip0_53_2174)">
<rect width="150" height="150" rx="75" fill="#D5D7D9"/>
<path d="M137.067 146.895L134.067 134.895C132.644 129.074 128.328 124.392 122.642 122.5L100.642 115.17C95.2768 112.935 92.822 104.295 92.2918 101.015C96.3798 97.6156 99.0102 92.779 99.6418 87.4999C99.5516 86.5983 99.7644 85.6922 100.247 84.9248C101.026 84.7296 101.664 84.1713 101.962 83.4249C103.401 79.9392 104.305 76.2558 104.642 72.4999C104.642 72.2958 104.617 72.0926 104.567 71.895C104.209 70.4356 103.351 69.1477 102.142 68.2549V54.9998C102.142 46.9448 99.6817 43.6399 97.0916 41.7248C96.597 37.845 92.442 30 77.142 30C63.5677 30.5466 52.6885 41.4258 52.1419 55.0001V68.2552C50.933 69.1479 50.075 70.4358 49.7169 71.8952C49.6662 72.0928 49.6412 72.2963 49.6419 72.5002C49.9784 76.2579 50.882 79.943 52.322 83.4302C52.5385 84.1369 53.1064 84.6804 53.8219 84.8653C54.102 85.0052 54.627 85.7304 54.627 87.5004C55.2624 92.7945 57.908 97.642 62.0171 101.04C61.4921 104.315 59.052 112.95 53.8372 115.13L31.6421 122.5C25.9602 124.392 21.6477 129.069 20.2222 134.885L17.2222 146.885C16.8826 148.224 17.6921 149.584 19.0304 149.924C19.2303 149.974 19.4359 150 19.6421 150H134.642C136.023 150 137.142 148.88 137.142 147.5C137.141 147.296 137.116 147.093 137.067 146.895Z" fill="#6E737B"/>
</g>
<defs>
<clipPath id="clip0_53_2174">
<rect width="150" height="150" rx="75" fill="white"/>
</clipPath>
</defs>
</svg>
