<svg width="10" height="10" viewBox="0 0 10 10" fill="none" xmlns="http://www.w3.org/2000/svg">
<path d="M8.615 6.63L7.34501 6.485C7.04001 6.45001 6.74001 6.555 6.52501 6.77L5.60501 7.69C4.19001 6.97 3.03 5.815 2.31001 4.395L3.23501 3.47C3.45001 3.255 3.55501 2.955 3.52 2.65L3.37501 1.39C3.31501 0.885005 2.89001 0.505005 2.38001 0.505005H1.51501C0.950005 0.505005 0.480005 0.975005 0.515005 1.54C0.780005 5.81 4.19501 9.22 8.46001 9.485C9.02501 9.52 9.495 9.05 9.495 8.485V7.62C9.5 7.115 9.12 6.69 8.615 6.63Z" fill="#0D1523"/>
</svg>
