<svg width="20" height="20" viewBox="0 0 20 20" fill="none" xmlns="http://www.w3.org/2000/svg">
<g clip-path="url(#clip0_3_1081)">
<path d="M9.99996 1.66663C5.39996 1.66663 1.66663 5.39996 1.66663 9.99996C1.66663 14.6 5.39996 18.3333 9.99996 18.3333C14.6 18.3333 18.3333 14.6 18.3333 9.99996C18.3333 5.39996 14.6 1.66663 9.99996 1.66663ZM9.99996 16.6666C6.32496 16.6666 3.33329 13.675 3.33329 9.99996C3.33329 6.32496 6.32496 3.33329 9.99996 3.33329C13.675 3.33329 16.6666 6.32496 16.6666 9.99996C16.6666 13.675 13.675 16.6666 9.99996 16.6666ZM13.2333 6.90829L8.33329 11.8083L6.76663 10.2416C6.44163 9.91663 5.91663 9.91663 5.59163 10.2416C5.26663 10.5666 5.26663 11.0916 5.59163 11.4166L7.74996 13.575C8.07496 13.9 8.59996 13.9 8.92496 13.575L14.4166 8.08329C14.7416 7.75829 14.7416 7.23329 14.4166 6.90829C14.0916 6.58329 13.5583 6.58329 13.2333 6.90829Z" fill="white"/>
</g>
<defs>
<clipPath id="clip0_3_1081">
<rect width="20" height="20" fill="white"/>
</clipPath>
</defs>
</svg>
