<svg width="12" height="13" viewBox="0 0 12 13" fill="none" xmlns="http://www.w3.org/2000/svg">
<g clip-path="url(#clip0_32_73)">
<path d="M7.95 8.15001L6 10.1L4.05 8.15001C3.855 7.95501 3.545 7.95501 3.35 8.15001C3.155 8.34501 3.155 8.65501 3.35 8.85001L5.645 11.145C5.84 11.34 6.155 11.34 6.35 11.145L8.65 8.85001C8.845 8.65501 8.845 8.34501 8.65 8.15001C8.455 7.95501 8.145 7.95501 7.95 8.15001ZM7.95 4.85001L6 2.90001L4.05 4.85001C3.855 5.04501 3.545 5.04501 3.35 4.85001C3.155 4.65501 3.155 4.34501 3.35 4.15001L5.645 1.85501C5.84 1.66001 6.155 1.66001 6.35 1.85501L8.65 4.15001C8.845 4.34501 8.845 4.65501 8.65 4.85001C8.455 5.04501 8.145 5.04501 7.95 4.85001Z" fill="#FF5454"/>
</g>
<defs>
<clipPath id="clip0_32_73">
<rect width="12" height="12" fill="white" transform="matrix(0 -1 1 0 0 12.5)"/>
</clipPath>
</defs>
</svg>
