<svg width="12" height="13" viewBox="0 0 12 13" fill="none" xmlns="http://www.w3.org/2000/svg">
<g clip-path="url(#clip0_54_4090)">
<path d="M7.94999 8.14977L5.99999 10.0998L4.04999 8.14977C3.85499 7.95477 3.54499 7.95477 3.34999 8.14977C3.15499 8.34477 3.15499 8.65477 3.34999 8.84977L5.64499 11.1448C5.83999 11.3398 6.15499 11.3398 6.34999 11.1448L8.64998 8.84977C8.84498 8.65477 8.84498 8.34477 8.64998 8.14977C8.45498 7.95477 8.14499 7.95477 7.94999 8.14977V8.14977ZM7.94999 4.84977L5.99999 2.89977L4.04999 4.84977C3.85499 5.04477 3.54499 5.04477 3.34999 4.84977C3.15499 4.65477 3.15499 4.34477 3.34999 4.14977L5.64499 1.85476C5.83999 1.65976 6.15499 1.65976 6.34999 1.85476L8.64998 4.14977C8.84498 4.34477 8.84498 4.65477 8.64998 4.84977C8.45498 5.04477 8.14499 5.04477 7.94999 4.84977V4.84977Z" fill="#0D1523"/>
</g>
<defs>
<clipPath id="clip0_54_4090">
<rect width="12" height="12" fill="white" transform="matrix(0 -1 1 0 0 12.5)"/>
</clipPath>
</defs>
</svg>
