<svg width="20" height="20" viewBox="0 0 20 20" fill="none" xmlns="http://www.w3.org/2000/svg">
<path d="M6.66668 9.16669C6.50186 9.16669 6.34074 9.21556 6.2037 9.30713C6.06666 9.3987 5.95985 9.52885 5.89678 9.68112C5.8337 9.83339 5.8172 10.0009 5.84936 10.1626C5.88151 10.3242 5.96088 10.4727 6.07742 10.5893C6.19397 10.7058 6.34245 10.7852 6.5041 10.8173C6.66575 10.8495 6.83331 10.833 6.98558 10.7699C7.13785 10.7068 7.268 10.6 7.35957 10.463C7.45114 10.326 7.50001 10.1648 7.50001 10C7.50001 9.77901 7.41221 9.56705 7.25593 9.41076C7.09965 9.25448 6.88769 9.16669 6.66668 9.16669ZM10 9.16669C9.83519 9.16669 9.67408 9.21556 9.53703 9.30713C9.39999 9.3987 9.29318 9.52885 9.23011 9.68112C9.16704 9.83339 9.15054 10.0009 9.18269 10.1626C9.21484 10.3242 9.29421 10.4727 9.41076 10.5893C9.5273 10.7058 9.67578 10.7852 9.83744 10.8173C9.99909 10.8495 10.1666 10.833 10.3189 10.7699C10.4712 10.7068 10.6013 10.6 10.6929 10.463C10.7845 10.326 10.8333 10.1648 10.8333 10C10.8333 9.77901 10.7455 9.56705 10.5893 9.41076C10.433 9.25448 10.221 9.16669 10 9.16669ZM13.3333 9.16669C13.1685 9.16669 13.0074 9.21556 12.8704 9.30713C12.7333 9.3987 12.6265 9.52885 12.5634 9.68112C12.5004 9.83339 12.4839 10.0009 12.516 10.1626C12.5482 10.3242 12.6275 10.4727 12.7441 10.5893C12.8606 10.7058 13.0091 10.7852 13.1708 10.8173C13.3324 10.8495 13.5 10.833 13.6522 10.7699C13.8045 10.7068 13.9347 10.6 14.0262 10.463C14.1178 10.326 14.1667 10.1648 14.1667 10C14.1667 9.77901 14.0789 9.56705 13.9226 9.41076C13.7663 9.25448 13.5544 9.16669 13.3333 9.16669ZM10 1.66669C8.90566 1.66669 7.82203 1.88224 6.81098 2.30102C5.79993 2.71981 4.88128 3.33364 4.10745 4.10746C2.54465 5.67027 1.66668 7.78988 1.66668 10C1.65939 11.9243 2.32567 13.7905 3.55001 15.275L1.88334 16.9417C1.76771 17.0589 1.68938 17.2077 1.65824 17.3693C1.62709 17.531 1.64453 17.6983 1.70834 17.85C1.77756 18 1.88976 18.126 2.03072 18.212C2.17167 18.2981 2.33501 18.3403 2.50001 18.3334H10C12.2101 18.3334 14.3298 17.4554 15.8926 15.8926C17.4554 14.3298 18.3333 12.2102 18.3333 10C18.3333 7.78988 17.4554 5.67027 15.8926 4.10746C14.3298 2.54466 12.2101 1.66669 10 1.66669ZM10 16.6667H4.50834L5.28334 15.8917C5.36208 15.8145 5.42473 15.7225 5.46764 15.6209C5.51055 15.5193 5.53289 15.4103 5.53334 15.3C5.53021 15.0802 5.44036 14.8705 5.28334 14.7167C4.19217 13.6267 3.51266 12.1921 3.36059 10.6573C3.20852 9.12256 3.5933 7.58253 4.44937 6.29962C5.30544 5.01672 6.57984 4.07032 8.05544 3.62166C9.53104 3.17301 11.1166 3.24986 12.5419 3.83911C13.9672 4.42837 15.1441 5.49358 15.872 6.85326C16.6 8.21294 16.8341 9.78297 16.5343 11.2959C16.2345 12.8087 15.4194 14.1709 14.228 15.1502C13.0365 16.1295 11.5423 16.6655 10 16.6667Z" fill="white"/>
</svg>
