<svg width="34" height="34" viewBox="0 0 34 34" fill="none" xmlns="http://www.w3.org/2000/svg">
<rect width="34" height="34" rx="4" fill="white"/>
<path d="M23.1026 16.1282H17.8718V10.8974C17.8718 10.6662 17.78 10.4445 17.6165 10.281C17.453 10.1175 17.2312 10.0256 17 10.0256C16.7688 10.0256 16.547 10.1175 16.3836 10.281C16.2201 10.4445 16.1282 10.6662 16.1282 10.8974V16.1282H10.8974C10.6662 16.1282 10.4445 16.22 10.281 16.3835C10.1175 16.547 10.0257 16.7688 10.0257 17C10.0257 17.2312 10.1175 17.453 10.281 17.6164C10.4445 17.7799 10.6662 17.8718 10.8974 17.8718H16.1282V23.1026C16.1282 23.3338 16.2201 23.5555 16.3836 23.719C16.547 23.8825 16.7688 23.9744 17 23.9744C17.2312 23.9744 17.453 23.8825 17.6165 23.719C17.78 23.5555 17.8718 23.3338 17.8718 23.1026V17.8718H23.1026C23.3338 17.8718 23.5555 17.7799 23.719 17.6164C23.8825 17.453 23.9744 17.2312 23.9744 17C23.9744 16.7688 23.8825 16.547 23.719 16.3835C23.5555 16.22 23.3338 16.1282 23.1026 16.1282Z" fill="black"/>
</svg>
