<svg width="20" height="20" viewBox="0 0 20 20" fill="none" xmlns="http://www.w3.org/2000/svg">
<g clip-path="url(#clip0_3_1119)">
<path d="M9.99996 1.66669C5.39996 1.66669 1.66663 5.40002 1.66663 10C1.66663 14.6 5.39996 18.3334 9.99996 18.3334C14.6 18.3334 18.3333 14.6 18.3333 10C18.3333 5.40002 14.6 1.66669 9.99996 1.66669ZM11.175 15.075V15.5584C11.175 16.1667 10.675 16.6667 10.0666 16.6667H10.0583C9.44996 16.6667 8.94996 16.1667 8.94996 15.5584V15.0584C7.84163 14.825 6.85829 14.2167 6.44163 13.1917C6.24996 12.7334 6.60829 12.225 7.10829 12.225H7.30829C7.61663 12.225 7.86663 12.4334 7.98329 12.725C8.22496 13.35 8.85829 13.7834 10.075 13.7834C11.7083 13.7834 12.075 12.9667 12.075 12.4584C12.075 11.7667 11.7083 11.1167 9.84996 10.675C7.78329 10.175 6.36663 9.32502 6.36663 7.61669C6.36663 6.18335 7.52496 5.25002 8.95829 4.94169V4.44169C8.95829 3.83335 9.45829 3.33335 10.0666 3.33335H10.075C10.6833 3.33335 11.1833 3.83335 11.1833 4.44169V4.95835C12.3333 5.24169 13.0583 5.95835 13.375 6.84169C13.5416 7.30002 13.1916 7.78335 12.7 7.78335H12.4833C12.175 7.78335 11.925 7.56669 11.8416 7.26669C11.65 6.63335 11.125 6.22502 10.075 6.22502C8.82496 6.22502 8.07496 6.79169 8.07496 7.59169C8.07496 8.29169 8.61663 8.75002 10.3 9.18335C11.9833 9.61669 13.7833 10.3417 13.7833 12.4417C13.7666 13.9667 12.625 14.8 11.175 15.075Z" fill="white"/>
</g>
<defs>
<clipPath id="clip0_3_1119">
<rect width="20" height="20" fill="white"/>
</clipPath>
</defs>
</svg>
