<svg width="14" height="14" viewBox="0 0 14 14" fill="none" xmlns="http://www.w3.org/2000/svg">
<path d="M13.1028 6.1282H7.87203V0.89743C7.87203 0.666215 7.78018 0.444471 7.61669 0.280978C7.4532 0.117484 7.23145 0.0256348 7.00024 0.0256348C6.76902 0.0256348 6.54728 0.117484 6.38379 0.280978C6.22029 0.444471 6.12844 0.666215 6.12844 0.89743V6.1282H0.897674C0.666459 6.1282 0.444715 6.22005 0.281222 6.38354C0.117729 6.54703 0.0258789 6.76878 0.0258789 6.99999C0.0258789 7.23121 0.117729 7.45295 0.281222 7.61644C0.444715 7.77994 0.666459 7.87179 0.897674 7.87179H6.12844V13.1026C6.12844 13.3338 6.22029 13.5555 6.38379 13.719C6.54728 13.8825 6.76902 13.9744 7.00024 13.9744C7.23145 13.9744 7.4532 13.8825 7.61669 13.719C7.78018 13.5555 7.87203 13.3338 7.87203 13.1026V7.87179H13.1028C13.334 7.87179 13.5558 7.77994 13.7193 7.61644C13.8827 7.45295 13.9746 7.23121 13.9746 6.99999C13.9746 6.76878 13.8827 6.54703 13.7193 6.38354C13.5558 6.22005 13.334 6.1282 13.1028 6.1282Z" fill="black"/>
</svg>
