<svg width="35" height="35" viewBox="0 0 35 35" fill="none" xmlns="http://www.w3.org/2000/svg">
<rect width="35" height="35" rx="17.5" fill="#EAEAEA"/>
<circle cx="17.579" cy="12.778" r="4.77803" stroke="#122349" stroke-width="1.5" stroke-linecap="round" stroke-linejoin="round"/>
<path fill-rule="evenodd" clip-rule="evenodd" d="M10 24.2014C9.99873 23.8655 10.0739 23.5338 10.2197 23.2312C10.6774 22.3158 11.968 21.8307 13.0389 21.611C13.8113 21.4462 14.5943 21.3361 15.3822 21.2815C16.8408 21.1534 18.3079 21.1534 19.7666 21.2815C20.5544 21.3367 21.3374 21.4468 22.1099 21.611C23.1808 21.8307 24.4714 22.2701 24.9291 23.2312C25.2224 23.848 25.2224 24.564 24.9291 25.1808C24.4714 26.1419 23.1808 26.5813 22.1099 26.7918C21.3384 26.9635 20.5551 27.0767 19.7666 27.1305C18.5794 27.2311 17.3866 27.2495 16.1968 27.1854C15.9222 27.1854 15.6568 27.1854 15.3822 27.1305C14.5966 27.0773 13.8163 26.9641 13.0481 26.7918C11.968 26.5813 10.6865 26.1419 10.2197 25.1808C10.0746 24.8747 9.99955 24.5402 10 24.2014Z" stroke="#122349" stroke-width="1.5" stroke-linecap="round" stroke-linejoin="round"/>
</svg>
