<svg width="20" height="20" viewBox="0 0 20 20" fill="none" xmlns="http://www.w3.org/2000/svg">
<g clip-path="url(#clip0_3_1091)">
<path d="M13.1916 8.57498L11.425 6.80831C11.1 6.48331 11.1 5.95831 11.425 5.63331C11.75 5.30831 12.275 5.30831 12.6 5.63331L13.775 6.80831L16.725 3.85831C17.05 3.53331 17.575 3.53331 17.9 3.85831C18.225 4.18331 18.225 4.70831 17.9 5.03331L14.3666 8.56665C14.0416 8.89998 13.5166 8.89998 13.1916 8.57498ZM8.33329 5.83331H2.49996C2.04163 5.83331 1.66663 6.20831 1.66663 6.66665C1.66663 7.12498 2.04163 7.49998 2.49996 7.49998H8.33329C8.79163 7.49998 9.16663 7.12498 9.16663 6.66665C9.16663 6.20831 8.79163 5.83331 8.33329 5.83331ZM16.9083 10.5916C16.5833 10.2666 16.0583 10.2666 15.7333 10.5916L14.1666 12.1583L12.6 10.5916C12.275 10.2666 11.75 10.2666 11.425 10.5916C11.1 10.9166 11.1 11.4416 11.425 11.7666L12.9916 13.3333L11.425 14.9C11.1 15.225 11.1 15.75 11.425 16.075C11.75 16.4 12.275 16.4 12.6 16.075L14.1666 14.5083L15.7333 16.075C16.0583 16.4 16.5833 16.4 16.9083 16.075C17.2333 15.75 17.2333 15.225 16.9083 14.9L15.3416 13.3333L16.9083 11.7666C17.2333 11.4416 17.2333 10.9166 16.9083 10.5916ZM8.33329 12.5H2.49996C2.04163 12.5 1.66663 12.875 1.66663 13.3333C1.66663 13.7916 2.04163 14.1666 2.49996 14.1666H8.33329C8.79163 14.1666 9.16663 13.7916 9.16663 13.3333C9.16663 12.875 8.79163 12.5 8.33329 12.5Z" fill="white"/>
</g>
<defs>
<clipPath id="clip0_3_1091">
<rect width="20" height="20" fill="white"/>
</clipPath>
</defs>
</svg>
