<svg width="20" height="20" viewBox="0 0 20 20" fill="none" xmlns="http://www.w3.org/2000/svg">
<path fill-rule="evenodd" clip-rule="evenodd" d="M17.3389 6.35296L16.8202 5.45288C16.3814 4.69128 15.409 4.42855 14.6463 4.86555V4.86555C14.2833 5.0794 13.8501 5.14008 13.4423 5.03419C13.0345 4.9283 12.6855 4.66455 12.4724 4.30109C12.3353 4.07007 12.2616 3.80694 12.2588 3.53832V3.53832C12.2712 3.10763 12.1087 2.69028 11.8084 2.38134C11.5081 2.0724 11.0955 1.89817 10.6646 1.89835H9.61962C9.19751 1.89834 8.7928 2.06654 8.49504 2.36574C8.19728 2.66493 8.03102 3.07044 8.03305 3.49255V3.49255C8.02054 4.36405 7.31044 5.06396 6.43885 5.06387C6.17022 5.06108 5.90709 4.9874 5.67607 4.85029V4.85029C4.91343 4.41329 3.94097 4.67603 3.50216 5.43763L2.94533 6.35296C2.50705 7.11361 2.76621 8.08545 3.52504 8.52687V8.52687C4.01829 8.81165 4.32215 9.33794 4.32215 9.9075C4.32215 10.4771 4.01829 11.0033 3.52504 11.2881V11.2881C2.76717 11.7266 2.50773 12.6961 2.94533 13.4544V13.4544L3.47165 14.3621C3.67725 14.7331 4.02221 15.0069 4.4302 15.1228C4.83819 15.2388 5.27557 15.1874 5.64556 14.98V14.98C6.00927 14.7677 6.4427 14.7096 6.84949 14.8184C7.25628 14.9273 7.60274 15.1942 7.81184 15.5597C7.94896 15.7907 8.02263 16.0538 8.02542 16.3225V16.3225C8.02542 17.2029 8.73917 17.9167 9.61962 17.9167H10.6646C11.5421 17.9167 12.2546 17.2076 12.2588 16.3301V16.3301C12.2568 15.9066 12.4241 15.5 12.7235 15.2006C13.0229 14.9011 13.4296 14.7338 13.853 14.7359C14.121 14.743 14.3831 14.8164 14.6158 14.9495V14.9495C15.3765 15.3877 16.3483 15.1286 16.7897 14.3697V14.3697L17.3389 13.4544C17.5515 13.0895 17.6098 12.655 17.501 12.2469C17.3922 11.8389 17.1252 11.4911 16.7592 11.2805V11.2805C16.3932 11.0699 16.1262 10.7221 16.0174 10.3141C15.9086 9.90604 15.9669 9.47146 16.1795 9.10658C16.3177 8.86523 16.5179 8.66511 16.7592 8.52687V8.52687C17.5135 8.08569 17.772 7.11953 17.3389 6.36059V6.36059V6.35296Z" stroke="white" stroke-width="1.5" stroke-linecap="round" stroke-linejoin="round"/>
<ellipse cx="10.1459" cy="9.90749" rx="2.1968" ry="2.1968" stroke="white" stroke-width="1.5" stroke-linecap="round" stroke-linejoin="round"/>
</svg>
