<svg width="16" height="16" viewBox="0 0 16 16" fill="none" xmlns="http://www.w3.org/2000/svg">
<path d="M8.00001 1.33331C4.32001 1.33331 1.33334 4.31998 1.33334 7.99998C1.33334 11.68 4.32001 14.6666 8.00001 14.6666C11.68 14.6666 14.6667 11.68 14.6667 7.99998C14.6667 4.31998 11.68 1.33331 8.00001 1.33331ZM11.0933 5.86665C10.9933 6.91998 10.56 9.47998 10.34 10.66C10.2467 11.16 10.06 11.3266 9.88668 11.3466C9.50001 11.38 9.20668 11.0933 8.83334 10.8466C8.24668 10.46 7.91334 10.22 7.34668 9.84665C6.68668 9.41331 7.11334 9.17331 7.49334 8.78665C7.59334 8.68665 9.30001 7.13331 9.33334 6.99331C9.33797 6.97211 9.33736 6.95009 9.33155 6.92918C9.32574 6.90827 9.31491 6.88909 9.30001 6.87331C9.26001 6.83998 9.20668 6.85331 9.16001 6.85998C9.10001 6.87331 8.16668 7.49331 6.34668 8.71998C6.08001 8.89998 5.84001 8.99331 5.62668 8.98665C5.38668 8.97998 4.93334 8.85331 4.59334 8.73998C4.17334 8.60665 3.84668 8.53331 3.87334 8.29998C3.88668 8.17998 4.05334 8.05998 4.36668 7.93331C6.31334 7.08665 7.60668 6.52665 8.25334 6.25998C10.1067 5.48665 10.4867 5.35331 10.74 5.35331C10.7933 5.35331 10.92 5.36665 11 5.43331C11.0667 5.48665 11.0867 5.55998 11.0933 5.61331C11.0867 5.65331 11.1 5.77331 11.0933 5.86665Z" fill="#0088CC"/>
</svg>
