<svg width="20" height="20" viewBox="0 0 20 20" fill="none" xmlns="http://www.w3.org/2000/svg">
<g clip-path="url(#clip0_25_436)">
<path d="M9.16667 15H11.6667C12.125 15 12.5 14.625 12.5 14.1667V5.00002C12.5 4.54169 12.125 4.16669 11.6667 4.16669H9.16667C8.70834 4.16669 8.33334 4.54169 8.33334 5.00002V14.1667C8.33334 14.625 8.70834 15 9.16667 15ZM4.16667 15H6.66667C7.125 15 7.5 14.625 7.5 14.1667V5.00002C7.5 4.54169 7.125 4.16669 6.66667 4.16669H4.16667C3.70834 4.16669 3.33334 4.54169 3.33334 5.00002V14.1667C3.33334 14.625 3.70834 15 4.16667 15ZM13.3333 5.00002V14.1667C13.3333 14.625 13.7083 15 14.1667 15H16.6667C17.125 15 17.5 14.625 17.5 14.1667V5.00002C17.5 4.54169 17.125 4.16669 16.6667 4.16669H14.1667C13.7083 4.16669 13.3333 4.54169 13.3333 5.00002Z" fill="#323232"/>
</g>
<defs>
<clipPath id="clip0_25_436">
<rect width="20" height="20" fill="white"/>
</clipPath>
</defs>
</svg>
