<svg width="8" height="8" viewBox="0 0 8 8" fill="none" xmlns="http://www.w3.org/2000/svg">
<path d="M7.67492 0.330816C7.44742 0.103316 7.07992 0.103316 6.85242 0.330816L3.99992 3.17748L1.14742 0.324983C0.919922 0.0974829 0.552422 0.0974829 0.324922 0.324983C0.0974219 0.552483 0.0974219 0.919983 0.324922 1.14748L3.17742 3.99998L0.324922 6.85248C0.0974219 7.07998 0.0974219 7.44748 0.324922 7.67498C0.552422 7.90248 0.919922 7.90248 1.14742 7.67498L3.99992 4.82248L6.85242 7.67498C7.07992 7.90248 7.44742 7.90248 7.67492 7.67498C7.90242 7.44748 7.90242 7.07998 7.67492 6.85248L4.82242 3.99998L7.67492 1.14748C7.89659 0.925816 7.89659 0.552483 7.67492 0.330816Z" fill="#323232"/>
</svg>
